<svg id="Layer_1" data-name="Layer 1" xmlns="http://www.w3.org/2000/svg" viewBox="0 0 171.4 154.33">
  <title>KP-bullet</title>
  <g>
    <polygon points="48.2 93.78 84.34 57.52 84.34 49.35 48.2 85.65 48.2 93.78"/>
    <polygon points="84.34 88.26 84.34 64.65 75.4 73.7 84.34 88.26"/>
    <path d="M163.25,96.9a3.15,3.15,0,0,0-3.15-3.15H146.31V100H160.1A3.15,3.15,0,0,0,163.25,96.9Z" transform="translate(-35.18 -24.51)"/>
    <path d="M160.1,73.12H124.56V97.46h0V121l5.84,9.51V78.4h29.7a18.5,18.5,0,1,1,0,37H146.31v5.28H160.1a23.78,23.78,0,1,0,0-47.55Z" transform="translate(-35.18 -24.51)"/>
    <path d="M203.87,56.65,123.21,25a6.46,6.46,0,0,0-4.66,0L37.89,56.65a4.26,4.26,0,0,0-2.71,4v82.1a4.26,4.26,0,0,0,2.71,4l80.66,31.69a6.36,6.36,0,0,0,4.66,0l80.66-31.69a4.26,4.26,0,0,0,2.71-4V60.63A4.26,4.26,0,0,0,203.87,56.65Zm-142,78.65h-5V68.06h5Zm10.78,0h-5V68.06h5Zm87.5-9.59H146.31v9.59h-5V88.72H160.1a8.18,8.18,0,1,1,0,16.36H146.31v5.28H160.1a13.46,13.46,0,1,0,0-26.92H135.44V135.3h-8l-20.52-33.42-4.18,4.18,18,29.24h-5.91L99.07,109.72l-4.18,4.18,13.16,21.4h-5.91L91.23,117.56l-7.85,7.85v9.89h-5V68.06h5V87.79L103,68.06h7.13l-7.76,7.83-19,19V103l34.82-35h5.34v0H160.1a28.81,28.81,0,1,1,0,57.62Z" transform="translate(-35.18 -24.51)"/>
  </g>
</svg>
