<?xml version="1.0" encoding="utf-8"?>
<!-- Generator: Adobe Illustrator 22.1.0, SVG Export Plug-In . SVG Version: 6.00 Build 0)  -->
<svg version="1.1" id="Layer_1" xmlns="http://www.w3.org/2000/svg" xmlns:xlink="http://www.w3.org/1999/xlink" x="0px" y="0px"
	 viewBox="0 0 32 32" style="enable-background:new 0 0 32 32;" xml:space="preserve">
<title>instagram</title>
<g>
	<polygon points="8.9,19.1 15.6,12.3 15.6,10.8 8.9,17.6 	"/>
	<polygon points="15.6,18.1 15.6,13.6 14,15.3 	"/>
	<path d="M23.9,15.1c0-0.3-0.3-0.6-0.6-0.6h-2.6v1.2h2.6C23.6,15.7,23.9,15.4,23.9,15.1z"/>
	<path d="M23.3,10.6h-6.7v4.6h0v4.4l1.1,1.8v-9.8h0.1h0.8h4.6c1.9,0,3.5,1.6,3.5,3.5c0,1.9-1.6,3.5-3.5,3.5h-2.6v1h2.6
		c2.5,0,4.5-2,4.5-4.5C27.7,12.6,25.7,10.6,23.3,10.6z"/>
	<path d="M31.5,7.5l-15.2-6c-0.3-0.1-0.6-0.1-0.9,0l-15.2,6C0,7.7-0.2,8-0.2,8.3v15.4c0,0.3,0.2,0.6,0.5,0.7l15.2,6
		c0.3,0.1,0.6,0.1,0.9,0l15.2-6c0.3-0.1,0.5-0.4,0.5-0.7V8.3C32,8,31.8,7.7,31.5,7.5z M4.8,22.3H3.9V9.7h0.9V22.3z M6.8,22.3H5.9
		V9.7h0.9V22.3z M23.3,20.5h-2.6v0.3v1.5h-0.9v-8.7h0.3h0.6h2.6c0.8,0,1.5,0.7,1.5,1.5c0,0.8-0.7,1.5-1.5,1.5h-2.6v1h2.6
		c1.4,0,2.5-1.1,2.5-2.5c0-1.4-1.1-2.5-2.5-2.5h-4.6v9.7h-1.5L13.3,16l-0.8,0.8l3.4,5.5h-1.1l-3-4.8L11,18.3l2.5,4h-1.1l-2-3.3
		l-1.5,1.5v1.9H7.9V9.7h0.9v3.7l3.7-3.7h1.3c-1.5,1.5-1.5,1.5-1.5,1.5l-3.6,3.6v1.5l6.5-6.6h1v0h6.9c3,0,5.4,2.4,5.4,5.4
		C28.7,18.1,26.3,20.5,23.3,20.5z"/>
</g>
</svg>
