<svg xmlns="http://www.w3.org/2000/svg" viewBox="0 0 427.38 868">
  <title>rockets</title>
  <g id="Layer_2" data-name="Layer 2">
    <g id="rockets">
      <g>
        <path d="M72.67,371.82a49.81,49.81,0,0,0,2.41-17.22,35.89,35.89,0,0,0-3-12.16,46.3,46.3,0,0,0-2-4.34A47.69,47.69,0,0,0,68,342.44a44.18,44.18,0,0,0-2.37,7.4c-2.76-2.22-10.24-9.3-12.75-22.6a121.71,121.71,0,0,0,.63-16.73c-.34-10.9-4.88-22.46-9-30.84a114.45,114.45,0,0,0-6.9-12.13,114.45,114.45,0,0,0-6.9,12.13c-4.15,8.38-8.71,19.94-9,30.84a121.71,121.71,0,0,0,.63,16.73c-2.51,13.3-10,20.38-12.75,22.6a43.25,43.25,0,0,0-2.38-7.4,46.3,46.3,0,0,0-2.05-4.34,46.3,46.3,0,0,0-2,4.34A35.66,35.66,0,0,0,0,354.6a49.81,49.81,0,0,0,2.41,17.22h0l.92,3h0a8.32,8.32,0,0,0-.79,3.63c0,1.23.12,2.83.3,4.59V821.35h4.4V383c.18-1.76.3-3.36.3-4.59a8.32,8.32,0,0,0-.79-3.63h0l.93-3h0a47.11,47.11,0,0,0,2-9.19l19.49-7.28,2.87,9.23h0a26.09,26.09,0,0,0-2.53,11.58c0,3.78.34,8.67.88,14V821.35H44.64V390.25c.54-5.38.88-10.29.88-14.09A26,26,0,0,0,43,364.58h0l2.9-9.23,19.48,7.28a47.94,47.94,0,0,0,2,9.19h0l.93,3h0a8.18,8.18,0,0,0-.79,3.63c0,1.11.09,2.51.24,4.06V821.35h4.41V383.49a50.79,50.79,0,0,0,.35-5.08,8.16,8.16,0,0,0-.8-3.63h0l.93-3Zm-67.61,3Zm65,0Z" style="fill: #052d45"/>
        <path d="M423.12,508.59a88,88,0,0,0,4.23-30.23c-.19-7.61-2.89-15.68-5.25-21.36a81.11,81.11,0,0,0-3.6-7.63,82.48,82.48,0,0,0-3.61,7.63,77.9,77.9,0,0,0-4.18,13c-4.83-3.89-18-16.33-22.38-39.69a212.35,212.35,0,0,0,1.1-29.37c-.59-19.15-8.57-39.45-15.86-54.16a203,203,0,0,0-12.12-21.31,201.87,201.87,0,0,0-12.13,21.31c-7.29,14.71-15.28,35-15.87,54.16a210.72,210.72,0,0,0,1.11,29.37C330.15,453.66,317,466.1,312.17,470A77,77,0,0,0,308,457a82.48,82.48,0,0,0-3.61-7.63,82.48,82.48,0,0,0-3.61,7.63c-2.36,5.68-5.06,13.75-5.24,21.36a88,88,0,0,0,4.22,30.23h0l1.62,5.2h0a14.41,14.41,0,0,0-1.39,6.38c0,2.16.2,5,.52,8.05V855.46h7.74V528.22c.31-3.08.52-5.89.52-8.05a14.25,14.25,0,0,0-1.4-6.38h0l1.63-5.2h0a84.53,84.53,0,0,0,3.57-16.14l34.22-12.79,5.05,16.21h0c-2.12,5.23-4.45,10.16-4.45,20.33,0,6.65.6,15.23,1.55,24.64V855.46h24.89V541c.95-9.46,1.55-18.08,1.55-24.76,0-10.17-2.32-15.1-4.44-20.33h0l5.09-16.21,34.21,12.79a84.44,84.44,0,0,0,3.58,16.14h0l1.62,5.2h0a14.41,14.41,0,0,0-1.39,6.38c0,1.94.16,4.41.42,7.12V855.46h7.74V529.09a89.09,89.09,0,0,0,.61-8.92,14.41,14.41,0,0,0-1.39-6.38h0l1.63-5.2Z" style="fill: #052d45"/>
        <path d="M199.37,238.69H175.3c-2.67,6.64-5.41,13.48-5.41,25.83V868h34.9V264.52C204.79,252.17,202.05,245.33,199.37,238.69Z" style="fill: #6fc4ef"/>
        <rect x="261.77" y="278.96" width="10.85" height="464.04" style="fill: #6fc4ef"/>
        <rect x="101.93" y="278.96" width="10.85" height="464.04" style="fill: #6fc4ef"/>
        <g>
          <g>
            <path d="M207,267.4c0-14.26-3.27-21.17-6.23-28.5H187.35v0H174c-3,7.33-6.22,14.24-6.22,28.5,0,45.19,19.62,153.56,19.62,153.56v0S207,312.59,207,267.4Z" style="fill: #f79418"/>
            <path d="M193,238.9H181.68c-2.25,4.1-6.19,13.73-6.19,28.83,0,26.07,11.86,92,11.86,92s11.85-65.91,11.85-92C199.2,252.63,195.26,243,193,238.9Z" style="fill: #fbb03d"/>
            <path d="M187.35,300.15c-1.93-11.58-3.43-23.48-3.43-32.42a59.81,59.81,0,0,1,3.23-20.4h.4a60.11,60.11,0,0,1,3.22,20.4C190.77,276.67,189.27,288.57,187.35,300.15Z" style="fill: #fbd391"/>
          </g>
          <path d="M208,215.66,259,235.28V204.52S224.56,182.15,223,128.08C200.25,177.69,208,215.66,208,215.66Z" style="fill: #e6e7e8"/>
          <path d="M113.84,256.74h-13A123.13,123.13,0,0,1,95,214.35c.26-10.66,4-22,7.35-29.95a115.92,115.92,0,0,1,5.06-10.69,114.54,114.54,0,0,1,5,10.69c3.31,8,7.1,19.29,7.35,29.95A123.13,123.13,0,0,1,113.84,256.74Z" style="fill: #f1f2f2"/>
          <path d="M166.66,215.66l-50.95,19.62V204.52s34.4-22.37,35.94-76.44C174.43,177.69,166.66,215.66,166.66,215.66Z" style="fill: #e6e7e8"/>
          <path d="M207.85,216.17h-41c-9.62-24.3-20.26-60.25-18.74-110.36.82-26.85,12-55.31,22.25-75.94A282.88,282.88,0,0,1,187.35,0a284,284,0,0,1,17,29.87C214.56,50.5,225.75,79,226.57,105.81,228.09,155.92,217.46,191.87,207.85,216.17Z" style="fill: #f0f0f0"/>
          <path d="M204.34,29.87h-34A282.88,282.88,0,0,1,187.35,0,284,284,0,0,1,204.34,29.87Z" style="fill: #f74020"/>
          <path d="M207.85,216.17h-18.1v-.64C212.53,112.64,187.35,0,187.35,0a284,284,0,0,1,17,29.87C214.56,50.5,225.75,79,226.57,105.81,228.09,155.92,217.46,191.87,207.85,216.17Z" style="fill: #b0b0b0"/>
          <path d="M204.34,29.87H192.58C189.85,11.24,187.35,0,187.35,0A284,284,0,0,1,204.34,29.87Z" style="fill: #d13f25"/>
          <path d="M112.41,184.4H102.3a115.92,115.92,0,0,1,5.06-10.69A114.54,114.54,0,0,1,112.41,184.4Z" style="fill: #f74020"/>
          <path d="M113.84,256.74h-5.27c8.84-43.11-1.21-83-1.21-83a114.54,114.54,0,0,1,5,10.69c3.31,8,7.1,19.29,7.35,29.95A123.13,123.13,0,0,1,113.84,256.74Z" style="fill: #b0b0b0"/>
          <path d="M112.41,184.4h-3c-1.1-6.74-2.08-10.69-2.08-10.69A114.54,114.54,0,0,1,112.41,184.4Z" style="fill: #d13f25"/>
          <path d="M216.7,114.41a29.36,29.36,0,1,1-29.36-29.36A29.35,29.35,0,0,1,216.7,114.41Z" style="fill: #fff"/>
          <path d="M209.5,114.41a22.16,22.16,0,1,1-22.16-22.15A22.16,22.16,0,0,1,209.5,114.41Z" style="fill: #0e7493"/>
          <path d="M179.34,103.75a2.71,2.71,0,1,1-2.71-2.71A2.71,2.71,0,0,1,179.34,103.75Z" style="fill: #14b2e3"/>
          <path d="M182.9,100.72a1.33,1.33,0,1,1-1.33-1.33A1.32,1.32,0,0,1,182.9,100.72Z" style="fill: #14b2e3"/>
          <path d="M273.81,256.74h-13a123.33,123.33,0,0,1-5.93-42.39c.26-10.66,4-22,7.35-29.95a115.92,115.92,0,0,1,5.06-10.69,115.92,115.92,0,0,1,5.06,10.69c3.31,8,7.09,19.29,7.35,29.95A123.37,123.37,0,0,1,273.81,256.74Z" style="fill: #f1f2f2"/>
          <path d="M272.38,184.4H262.26a115.92,115.92,0,0,1,5.06-10.69A115.92,115.92,0,0,1,272.38,184.4Z" style="fill: #f74020"/>
          <path d="M273.81,256.74h-5.28c8.84-43.11-1.21-83-1.21-83a115.92,115.92,0,0,1,5.06,10.69c3.31,8,7.09,19.29,7.35,29.95A123.37,123.37,0,0,1,273.81,256.74Z" style="fill: #b0b0b0"/>
          <path d="M272.38,184.4h-3c-1.09-6.74-2.08-10.69-2.08-10.69A115.92,115.92,0,0,1,272.38,184.4Z" style="fill: #d13f25"/>
          <g>
            <path d="M187.34,85.05a29.36,29.36,0,1,0,29.37,29.36A29.38,29.38,0,0,0,187.34,85.05Zm0,53.66a24.3,24.3,0,1,1,24.29-24.3A24.29,24.29,0,0,1,187.34,138.71Z" style="fill: #728e97"/>
            <path d="M216.71,114.41a29.37,29.37,0,0,1-58.74,0h5.08a24.29,24.29,0,1,0,48.58,0Z" style="fill: #566b71"/>
            <path d="M188,87.58a.64.64,0,1,1-.64-.64A.64.64,0,0,1,188,87.58Z" style="fill: #fff"/>
            <path d="M188,87.58a.64.64,0,1,1-.64-.64A.64.64,0,0,1,188,87.58Z" style="fill: #fff"/>
            <path d="M174.48,90.86a.64.64,0,0,1-1.11.64.64.64,0,1,1,1.11-.64Z" style="fill: #fff"/>
            <path d="M164.43,100.44a.65.65,0,1,1-.88.24A.65.65,0,0,1,164.43,100.44Z" style="fill: #fff"/>
            <path d="M160.51,113.77a.65.65,0,0,1,0,1.29.65.65,0,0,1,0-1.29Z" style="fill: #fff"/>
            <path d="M163.78,127.27a.65.65,0,0,1,.88.24.64.64,0,0,1-1.11.64A.65.65,0,0,1,163.78,127.27Z" style="fill: #fff"/>
            <path d="M173.37,137.33a.64.64,0,1,1,1.11.64.64.64,0,0,1-1.11-.64Z" style="fill: #fff"/>
            <path d="M186.7,141.24a.64.64,0,0,1,.64-.64.64.64,0,1,1-.64.64Z" style="fill: #fff"/>
            <path d="M200.2,138a.64.64,0,1,1,.88.23A.64.64,0,0,1,200.2,138Z" style="fill: #fff"/>
            <path d="M210.25,128.38a.64.64,0,0,1-.23-.87.64.64,0,1,1,1.11.64A.64.64,0,0,1,210.25,128.38Z" style="fill: #fff"/>
            <path d="M214.17,115.06a.65.65,0,1,1,.64-.65A.64.64,0,0,1,214.17,115.06Z" style="fill: #fff"/>
            <path d="M210.9,101.56a.65.65,0,1,1,.23-.88A.65.65,0,0,1,210.9,101.56Z" style="fill: #fff"/>
            <path d="M201.31,91.5a.64.64,0,0,1-1.11-.64.64.64,0,1,1,1.11.64Z" style="fill: #fff"/>
          </g>
          <polygon points="208.03 215.66 200.73 238.9 173.91 238.9 166.66 215.66 208.03 215.66" style="fill: #f74020"/>
          <polygon points="208.03 215.66 200.73 238.9 188.79 238.9 189.77 215.66 208.03 215.66" style="fill: #d13f25"/>
          <g>
            <g>
              <path d="M207,267.4c0-14.26-3.27-21.17-6.23-28.5H187.35v0H174c-3,7.33-6.22,14.24-6.22,28.5,0,45.19,19.62,153.56,19.62,153.56v0S207,312.59,207,267.4Z" style="fill: #f79418"/>
              <path d="M193,238.9H181.68c-2.25,4.1-6.19,13.73-6.19,28.83,0,26.07,11.86,92,11.86,92s11.85-65.91,11.85-92C199.2,252.63,195.26,243,193,238.9Z" style="fill: #fbb03d"/>
              <path d="M187.35,300.15c-1.93-11.58-3.43-23.48-3.43-32.42a59.81,59.81,0,0,1,3.23-20.4h.4a60.11,60.11,0,0,1,3.22,20.4C190.77,276.67,189.27,288.57,187.35,300.15Z" style="fill: #fbd391"/>
            </g>
            <polygon points="208.03 215.66 200.73 238.9 173.91 238.9 166.66 215.66 208.03 215.66" style="fill: #f74020"/>
            <polygon points="208.03 215.66 200.73 238.9 188.79 238.9 189.77 215.66 208.03 215.66" style="fill: #d13f25"/>
          </g>
          <g>
            <g>
              <path d="M113.51,273a20.26,20.26,0,0,0-2-8.94h-4.2v0h-4.2a20.1,20.1,0,0,0-2,8.94c0,14.17,6.16,48.15,6.16,48.15v0S113.51,287.13,113.51,273Z" style="fill: #f79418"/>
              <path d="M109.13,264h-3.55a19.06,19.06,0,0,0-1.94,9c0,8.18,3.72,28.84,3.72,28.84s3.71-20.66,3.71-28.84A19.06,19.06,0,0,0,109.13,264Z" style="fill: #fbb03d"/>
              <path d="M107.36,283.23a66.87,66.87,0,0,1-1.08-10.17,19,19,0,0,1,1-6.4h.13a19,19,0,0,1,1,6.4A68,68,0,0,1,107.36,283.23Z" style="fill: #fbd391"/>
            </g>
            <polygon points="113.84 256.73 111.55 264.02 103.14 264.02 100.87 256.73 113.84 256.73" style="fill: #f74020"/>
            <polygon points="113.84 256.73 111.55 264.02 107.81 264.02 108.11 256.73 113.84 256.73" style="fill: #d13f25"/>
          </g>
          <g>
            <g>
              <path d="M273.47,273a20.12,20.12,0,0,0-2-8.94h-4.2v0h-4.2a20.12,20.12,0,0,0-1.95,8.94c0,14.17,6.15,48.15,6.15,48.15v0S273.47,287.13,273.47,273Z" style="fill: #f79418"/>
              <path d="M269.1,264h-3.56a19.19,19.19,0,0,0-1.94,9c0,8.18,3.72,28.84,3.72,28.84S271,281.24,271,273.06A19.19,19.19,0,0,0,269.1,264Z" style="fill: #fbb03d"/>
              <path d="M267.32,283.23a68,68,0,0,1-1.07-10.17,18.75,18.75,0,0,1,1-6.4h.12a18.71,18.71,0,0,1,1,6.4A68.17,68.17,0,0,1,267.32,283.23Z" style="fill: #fbd391"/>
            </g>
            <polygon points="273.81 256.73 271.52 264.02 263.11 264.02 260.83 256.73 273.81 256.73" style="fill: #f74020"/>
            <polygon points="273.81 256.73 271.52 264.02 267.77 264.02 268.08 256.73 273.81 256.73" style="fill: #d13f25"/>
          </g>
        </g>
      </g>
    </g>
  </g>
</svg>
