<?xml version="1.0" standalone="no"?>
<!DOCTYPE svg PUBLIC "-//W3C//DTD SVG 20010904//EN"
 "http://www.w3.org/TR/2001/REC-SVG-20010904/DTD/svg10.dtd">
<svg version="1.0" xmlns="http://www.w3.org/2000/svg"
 width="772.000000pt" height="772.000000pt" viewBox="0 0 772.000000 772.000000"
 preserveAspectRatio="xMidYMid meet">
<metadata>
Created by potrace 1.11, written by Peter Selinger 2001-2013
</metadata>
<g transform="translate(0.000000,772.000000) scale(0.100000,-0.100000)"
fill="#000000" stroke="none">
<path d="M3350 6740 c0 -5 5 -10 11 -10 5 0 7 5 4 10 -3 6 -8 10 -11 10 -2 0
-4 -4 -4 -10z"/>
<path d="M3383 6738 c-2 -5 3 -9 11 -9 9 -1 19 -2 24 -3 4 -1 23 -5 42 -9 19
-4 44 -9 55 -11 34 -7 169 -58 180 -67 5 -5 17 -9 27 -9 10 0 18 -3 18 -8 0
-4 15 -13 33 -21 55 -24 166 -99 219 -149 31 -28 62 -71 79 -107 l29 -60 0
-2515 0 -2515 -29 -59 c-33 -64 -87 -119 -141 -143 -44 -18 -174 -62 -203 -67
-12 -3 -22 -5 -22 -6 0 -1 -10 -3 -22 -4 -13 -2 -26 -6 -30 -9 -3 -4 383 -6
858 -6 747 1 855 3 797 15 -94 18 -207 54 -247 77 -97 58 -147 162 -142 297 3
87 1 181 -3 189 -4 5 -2 12 4 16 6 4 8 10 5 15 -3 5 -5 35 -5 67 1 32 0 67 0
78 -1 11 -1 25 -1 30 0 6 0 42 0 80 0 80 1 102 5 130 1 11 -1 32 -5 47 -4 14
-5 29 -2 32 3 2 4 62 3 133 -1 70 -1 135 -1 143 2 86 2 177 1 185 -1 6 -2 15
-1 20 1 6 1 66 1 135 -1 69 -1 132 -1 140 0 8 0 80 0 160 0 80 0 152 0 160 0
8 0 80 0 160 0 80 0 152 0 160 0 8 0 80 0 160 0 80 0 152 0 160 0 8 0 80 0
160 0 80 0 152 0 160 0 8 0 80 0 160 0 80 0 152 0 160 0 8 0 80 0 160 0 80 0
152 0 160 0 8 0 80 0 160 0 80 0 152 0 160 0 8 0 80 0 160 0 80 0 152 0 160 0
8 0 80 0 160 0 80 0 152 0 160 0 8 0 80 0 160 0 80 0 154 0 165 0 11 2 117 5
235 4 232 5 238 35 302 35 76 88 120 176 147 22 7 47 15 55 18 8 3 22 7 30 9
8 1 29 5 45 9 54 12 60 13 85 16 14 2 -22 5 -80 8 -58 4 -110 4 -117 1 -6 -3
-359 -3 -783 0 -424 3 -778 2 -788 -1 -9 -4 -21 -4 -25 -2 -14 8 -169 8 -174
1z"/>
<path d="M6521 6741 c-8 -5 6 -13 36 -20 26 -7 55 -15 63 -19 8 -3 26 -7 39
-9 44 -7 205 -74 301 -125 190 -100 316 -206 435 -363 16 -22 30 -42 30 -45 0
-3 8 -16 18 -30 15 -22 17 -23 18 -5 3 82 21 209 30 228 6 9 7 17 5 17 -3 0 6
33 20 73 29 80 94 186 143 232 70 66 70 66 -104 64 -86 0 -158 1 -160 3 -2 1
-146 1 -320 -2 -174 -3 -318 -3 -320 -1 -6 5 -166 3 -172 -3 -3 -2 -15 -1 -27
4 -13 4 -28 5 -35 1z"/>
<path d="M6550 4351 c0 -35 -36 -126 -74 -189 -45 -75 -181 -212 -209 -212 -5
0 -20 -9 -34 -20 -14 -11 -34 -20 -44 -20 -11 0 -19 -3 -19 -8 0 -7 -111 -50
-147 -57 -10 -2 -18 -4 -18 -5 0 -1 -11 -3 -25 -6 -55 -9 -54 -16 5 -35 73
-24 192 -81 254 -123 61 -40 180 -159 220 -218 33 -50 65 -117 87 -183 12 -39
13 -39 15 -10 1 17 0 35 -1 40 -3 12 -3 58 0 65 4 13 4 90 0 90 -3 0 -4 28 -3
62 2 66 3 103 3 141 0 12 2 30 3 41 2 10 0 38 -3 62 -4 24 -4 44 -1 44 3 0 4
32 1 70 -3 39 -3 70 0 70 4 0 3 25 0 55 -3 30 -4 55 -1 55 8 0 4 300 -3 308
-3 3 -6 -5 -6 -17z"/>
<path d="M2199 3797 c-96 -33 -150 -78 -219 -182 -33 -49 -66 -97 -73 -105 -6
-8 -11 -16 -9 -17 1 -2 -4 -13 -12 -26 -7 -12 -30 -48 -50 -80 -20 -31 -36
-62 -36 -67 0 -6 -4 -10 -10 -10 -5 0 -10 -4 -10 -9 0 -9 -191 -327 -210 -348
-5 -7 -10 -14 -10 -17 0 -3 -49 -85 -108 -183 -60 -98 -115 -189 -123 -203 -8
-14 -17 -27 -20 -30 -3 -3 -9 -12 -12 -20 -4 -8 -17 -31 -30 -51 -12 -20 -64
-106 -115 -190 -52 -85 -111 -183 -133 -218 -21 -34 -39 -65 -39 -67 0 -1 -13
-23 -30 -47 -16 -25 -30 -49 -30 -55 0 -6 -3 -12 -7 -14 -10 -4 -73 -107 -73
-119 0 -5 -3 -9 -7 -9 -5 0 -17 -18 -27 -40 -11 -22 -23 -40 -28 -40 -4 0 -8
-4 -8 -9 0 -5 -24 -48 -52 -96 -29 -47 -58 -93 -63 -103 -70 -118 -101 -168
-107 -170 -5 -2 -8 -10 -8 -18 0 -8 -4 -14 -10 -14 -5 0 -10 -5 -10 -12 0 -16
-60 -107 -92 -140 -37 -38 -126 -75 -223 -94 -173 -33 -187 -32 395 -32 527 0
558 1 614 20 137 45 182 97 350 393 24 43 132 225 188 318 33 54 67 113 77
131 16 29 97 166 121 206 61 100 90 152 90 160 0 6 5 10 10 10 6 0 10 4 10 9
0 5 41 77 90 160 50 84 90 156 90 162 0 5 5 9 10 9 6 0 10 4 10 10 0 5 26 53
58 107 32 54 105 177 163 273 134 227 181 291 309 421 151 153 305 259 510
352 43 20 186 68 219 74 14 2 28 6 32 8 4 3 24 7 45 11 22 3 57 10 79 14 22 4
-286 8 -685 9 l-725 0 -66 -22z"/>
</g>
</svg>
